<?xml version="1.0" encoding="UTF-8"?>
<svg width="69px" height="49px" viewBox="0 0 69 49" version="1.1" xmlns="http://www.w3.org/2000/svg" xmlns:xlink="http://www.w3.org/1999/xlink">
    <!-- Generator: Sketch 52.1 (67048) - http://www.bohemiancoding.com/sketch -->
    <title>youtube</title>
    <desc>Created with Sketch.</desc>
    <defs>
        <linearGradient x1="50%" y1="0%" x2="50%" y2="100%" id="linearGradient-1">
            <stop stop-color="#F00000" offset="0%"></stop>
            <stop stop-color="#C40000" offset="100%"></stop>
        </linearGradient>
    </defs>
    <g id="Page-1" stroke="none" stroke-width="1" fill="none" fill-rule="evenodd">
        <g id="A4" transform="translate(-926.000000, -5109.000000)">
            <g id="Отзывы" transform="translate(0.000000, 4740.000000)">
                <g id="Отзыв" transform="translate(731.000000, 273.000000)">
                    <g id="Профиль" transform="translate(64.000000, 0.000000)">
                        <g id="Group">
                            <g id="youtube" transform="translate(131.000000, 96.000000)">
                                <rect id="Rectangle-18" stroke="#979797" fill="#FFFFFF" x="20.5" y="11.5" width="31" height="26" rx="2"></rect>
                                <path d="M66.3105581,4.20630162 C63.8198806,1.21867752 59.2213645,0 50.4392226,0 L18.5601097,0 C9.57697742,0 4.90055806,1.29728739 2.41922903,4.47806716 C0,7.57933867 0,12.1488179 0,18.4730939 L0,30.5271307 C0,42.7792644 2.8704,49 18.5601097,49 L50.4394452,49 C58.0552645,49 62.2753935,47.924617 65.0055677,45.2880421 C67.8054097,42.5843119 69,38.1698065 69,30.5271307 L69,18.4730939 C69,11.8036083 68.8128097,7.2071771 66.3105581,4.20630162 Z M44.2982226,26.1642832 L29.8220226,33.7986487 C29.4983903,33.9693444 29.1444871,34.0540185 28.791029,34.0540185 C28.390829,34.0540185 27.9915194,33.9453123 27.6378387,33.7292475 C26.9718774,33.3220483 26.5652226,32.5936718 26.5652226,31.8080223 L26.5652226,16.5882539 C26.5652226,15.803952 26.9707645,15.0762493 27.6353903,14.6688256 C28.3002387,14.2614019 29.1271258,14.2335515 29.8169032,14.5951569 L44.2931032,22.1803352 C45.0296226,22.5661973 45.4921452,23.3334296 45.4932581,24.1705124 C45.4941484,25.0082689 45.033629,25.7766242 44.2982226,26.1642832 Z" id="XMLID_823_" fill="url(#linearGradient-1)"></path>
                            </g>
                        </g>
                    </g>
                </g>
            </g>
        </g>
    </g>
</svg>